<svg width="123" height="36" viewBox="0 0 123 36" fill="none" xmlns="http://www.w3.org/2000/svg">
<path fill-rule="evenodd" clip-rule="evenodd" d="M23.46 13.57C17.53 13.57 12.73 18.37 12.73 24.3C12.73 30.23 17.53 35.03 23.46 35.03C29.39 35.03 34.19 30.23 34.19 24.3C34.19 18.37 29.39 13.57 23.46 13.57ZM43.83 5C44.42 6.27 44.89 7.69 45.25 9.23C46.07 11.8 44.86 12.34 42.06 11.29C40 10.06 37.94 8.82 35.88 7.59C34.83 6.85 34.33 6.12 34.5 5.4C34.84 3.98 37.58 3.24 39.83 2.8C42.69 2.23 42.49 2.11 43.83 5ZM99.02 19.31C96.27 19.31 94.03 21.54 94.03 24.3C94.03 27.05 96.26 29.29 99.02 29.29C101.77 29.29 104.01 27.06 104.01 24.3C104.01 21.54 101.78 19.31 99.02 19.31ZM23.46 19.31C20.71 19.31 18.47 21.54 18.47 24.3C18.47 27.05 20.7 29.29 23.46 29.29C26.21 29.29 28.45 27.06 28.45 24.3C28.45 21.54 26.22 19.31 23.46 19.31ZM76.74 12.5C73.97 9.53 70.77 7.6 67.07 5.74C58.97 1.66 54.01 2.16 45.41 2.16L48.3 9.66C49.51 11.26 50.88 12.39 52.96 12.5H76.74ZM99.02 13.57C93.09 13.57 88.29 18.37 88.29 24.3C88.29 30.23 93.09 35.03 99.02 35.03C104.95 35.03 109.75 30.23 109.75 24.3C109.75 18.37 104.95 13.57 99.02 13.57ZM82.06 10.3C78.54 8.11 74.71 6.15 70.47 4.48C57.56 -0.609996 47.69 -1.52 34.15 2.58C30.07 4.13 25.99 5.68 21.91 6.64C17.88 7.6 0.430008 8.52 7.62939e-06 11.45L4.31001 16.6C2.74001 17.96 1.46001 19.63 0.990005 22.24C1.12001 23.85 1.56001 25.2 2.32001 26.28C3.61001 28.13 7.39001 30.04 9.43001 28.95C10.08 28.6 10.45 27.9 10.44 26.71C10.38 2.81 39.23 5.53 37.06 29.53H87.4C78.08 5.49 117.84 5.40001 110.78 28.7C113.26 31.38 119.11 27.34 122.88 18.75C121.85 17.73 120.72 16.76 119.46 15.86C119.52 15.81 119.4 16.05 119.61 15.69C119.82 15.33 119.1 13.82 117.62 12.95C109.86 8.4 91.15 8.52 82.06 10.3Z" fill="black"/>
</svg>
