<svg width="212" height="68" viewBox="0 0 212 68" fill="none" xmlns="http://www.w3.org/2000/svg">
<path d="M178.519 24.5458C176.214 24.392 174.224 24.2604 173.234 23.9918C166.285 22.1029 141.535 20.9744 138.887 20.8558C134.632 19.7123 130.918 17.1829 126.63 14.2671C117.973 8.37356 107.195 1.03531 85.5599 0.6033L84.0597 0.589931C73.5976 0.589931 61.9337 2.68938 50.8964 5.53586C46.0253 3.75185 38.0016 1.01609 33.5145 0.599959C31.2507 0.393148 30.0921 1.45144 29.6143 2.10529C27.9601 4.37479 29.1204 8.63511 30.3566 11.7845C17.2457 16.3335 7.74704 20.6268 6.91272 21.0083L6.41615 21.3488C4.02403 23.7165 5.06954 27.1078 5.91608 29.8335C6.17135 30.6766 6.43273 31.5059 6.58676 32.2906C6.89483 33.8745 3.29487 34.888 3.25647 34.8947L0.800642 35.5143L4.06985 39.7153L1.34609 43.3736L4.35653 47.0857C2.45226 47.4304 0.61519 48.2025 0.126468 49.8566C-0.542471 52.1056 1.43424 54.4106 6.74342 57.5654C9.3847 59.1359 12.1765 60.0802 15.2908 60.5218C15.1734 59.9741 15.0949 59.4138 15.0233 58.8493C14.9513 58.2803 14.9147 57.7008 14.8859 57.1196C14.8728 56.8163 14.8396 56.5151 14.8396 56.2067C14.8396 44.1386 25.0941 34.3194 37.6974 34.3194C50.3008 34.3194 60.5561 44.1419 60.5561 56.2067C60.5561 57.9949 60.3069 59.7246 59.8819 61.387C59.7414 61.9314 59.5944 62.4721 59.415 63.001C59.2409 63.5137 59.0489 64.0121 58.836 64.5093C69.6882 67.3023 82.7886 68 92.7742 68C99.8031 68 104.594 67.6704 104.675 67.6603H163.163C162.782 67.1331 162.427 66.5824 162.097 66.0213C161.782 65.489 161.499 64.9413 161.232 64.3839C159.943 61.6862 159.206 58.6998 159.206 55.5433C159.206 43.7696 169.213 34.1878 181.509 34.1878C193.808 34.1878 203.813 43.7701 203.813 55.5433C203.813 58.2444 203.264 60.8193 202.307 63.1982C202.026 63.893 201.708 64.5728 201.36 65.2325C200.993 65.9202 200.594 66.5903 200.153 67.2317C208.141 65.7297 210.479 60.6551 210.666 60.1725C213.183 49.4521 212.135 41.0234 207.55 35.1291C200.437 25.9968 186.715 25.0868 178.519 24.5458Z" fill="black"/>
</svg>
