<svg width="38" height="36" viewBox="0 0 38 36" fill="none" xmlns="http://www.w3.org/2000/svg">
<g clip-path="url(#clip0_5_30)">
<path d="M19.0002 0C8.52347 0 0 8.07473 0 18C0 27.9253 8.52347 36 19.0002 36C29.4767 36 38.0002 27.9253 38.0002 18C38.0002 8.07473 29.4765 0 19.0002 0ZM19.0002 30.7844C11.5471 30.7844 5.50535 25.0608 5.50535 18C5.50535 10.9392 11.5471 5.2156 19.0002 5.2156C26.4529 5.2156 32.4948 10.9392 32.4948 18C32.4948 25.0608 26.4527 30.7844 19.0002 30.7844Z" fill="black"/>
<path d="M19.0001 6.87073C12.5223 6.87073 7.25238 11.8633 7.25238 18C7.25238 24.1368 12.5224 29.1294 19.0001 29.1294C25.4778 29.1294 30.7478 24.1368 30.7478 18C30.7478 11.8633 25.4777 6.87073 19.0001 6.87073ZM29.2433 17.2905H23.5433C23.4268 16.608 23.1423 15.9786 22.7319 15.4406L26.7559 11.6284C28.1686 13.1694 29.0781 15.1331 29.2433 17.2905ZM19.7372 8.29499C22.013 8.44873 24.0851 9.3071 25.7127 10.6416L21.6895 14.4531C21.1216 14.0644 20.4574 13.795 19.7372 13.6847V8.29499ZM18.2629 8.29499V13.6846C17.5427 13.7949 16.8784 14.0643 16.3105 14.4531L12.2872 10.6417C13.9148 9.30725 15.9871 8.44873 18.2629 8.29499ZM11.2437 11.6285L15.268 15.4408C14.8575 15.9786 14.5731 16.608 14.4567 17.2903H8.75666C8.92193 15.1331 9.83143 13.1696 11.2437 11.6285ZM8.75502 18.687H14.4568C14.5731 19.3693 14.8577 19.9987 15.2681 20.5367L11.2328 24.3596C9.82172 22.8148 8.91491 20.8474 8.75502 18.687ZM18.2629 27.7051C15.981 27.5509 13.904 26.6885 12.2743 25.3479L16.3105 21.5242C16.8784 21.913 17.5427 22.1825 18.2629 22.2928V27.7051ZM18.2629 20.8561V20.8662C17.9448 20.793 17.6462 20.6739 17.3742 20.5163L17.3812 20.5097C16.9557 20.2639 16.5983 19.9253 16.3388 19.522L16.332 19.5285C16.1657 19.2709 16.0399 18.9881 15.9626 18.6867H15.9732C15.9157 18.4625 15.882 18.2295 15.882 17.9885C15.882 17.7474 15.9159 17.5144 15.9732 17.2902H15.9626C16.0399 16.9889 16.1655 16.7062 16.332 16.4485L16.3388 16.455C16.5983 16.0519 16.9559 15.7132 17.3812 15.4675L17.3742 15.4608C17.6462 15.3033 17.9448 15.1841 18.2629 15.1109V15.1211C18.4997 15.0667 18.7456 15.0346 19.0001 15.0346C19.2547 15.0346 19.5006 15.0667 19.7374 15.1211V15.1109C20.0555 15.1842 20.3539 15.3031 20.6258 15.4607L20.6188 15.4674C21.0444 15.713 21.4018 16.0518 21.6613 16.4549L21.6682 16.4484C21.8346 16.706 21.9603 16.9889 22.0377 17.2903H22.0271C22.0845 17.5145 22.1183 17.7476 22.1183 17.9886C22.1183 18.2296 22.0844 18.4627 22.0271 18.6869H22.0377C21.9603 18.9883 21.8348 19.2711 21.6682 19.5288L21.6613 19.5223C21.4018 19.9254 21.0443 20.264 20.6188 20.5098L20.6258 20.5163C20.3539 20.6739 20.0555 20.793 19.7374 20.8662V20.8561C19.5006 20.9105 19.2547 20.9426 19.0001 20.9426C18.7456 20.9426 18.4997 20.9107 18.2629 20.8561ZM19.7372 27.7051V22.2928C20.4574 22.1825 21.1216 21.913 21.6895 21.5244L25.7255 25.3479C24.096 26.6885 22.019 27.5509 19.7372 27.7051ZM26.7671 24.3596L22.732 20.5368C23.1424 19.9988 23.4268 19.3694 23.5434 18.687H29.2451C29.0851 20.8474 28.1784 22.8148 26.7671 24.3596Z" fill="black"/>
</g>
<defs>
<clipPath id="clip0_5_30">
<rect width="38" height="36" fill="white"/>
</clipPath>
</defs>
</svg>
